HIERARCHY
ROOT Hips
{
	OFFSET 0.00000 0.00000 0.00000
	CHANNELS 6 Xposition Yposition Zposition Zrotation Yrotation Xrotation 
	JOINT LHipJoint
	{
		OFFSET 0 0 0
		CHANNELS 3 Zrotation Yrotation Xrotation
		JOINT LeftUpLeg
		{
			OFFSET 1.26600 -1.82114 0.91038
			CHANNELS 3 Zrotation Yrotation Xrotation
			JOINT LeftLeg
			{
				OFFSET 2.50076 -6.87080 0.00000
				CHANNELS 3 Zrotation Yrotation Xrotation
				JOINT LeftFoot
				{
					OFFSET 2.57364 -7.07102 0.00000
					CHANNELS 3 Zrotation Yrotation Xrotation
					JOINT LeftToeBase
					{
						OFFSET 0.13572 -0.37290 1.97004
						CHANNELS 3 Zrotation Yrotation Xrotation
						End Site
						{
							OFFSET 0.00000 -0.00000 1.01383
						}
					}
				}
			}
		}
	}
	JOINT RHipJoint
	{
		OFFSET 0 0 0
		CHANNELS 3 Zrotation Yrotation Xrotation
		JOINT RightUpLeg
		{
			OFFSET -1.20803 -1.82114 0.91038
			CHANNELS 3 Zrotation Yrotation Xrotation
			JOINT RightLeg
			{
				OFFSET -2.54916 -7.00377 0.00000
				CHANNELS 3 Zrotation Yrotation Xrotation
				JOINT RightFoot
				{
					OFFSET -2.56374 -7.04382 0.00000
					CHANNELS 3 Zrotation Yrotation Xrotation
					JOINT RightToeBase
					{
						OFFSET -0.23520 -0.64621 2.09921
						CHANNELS 3 Zrotation Yrotation Xrotation
						End Site
						{
							OFFSET -0.00000 -0.00000 1.10065
						}
					}
				}
			}
		}
	}
	JOINT LowerBack
	{
		OFFSET 0 0 0
		CHANNELS 3 Zrotation Yrotation Xrotation
		JOINT Spine
		{
			OFFSET 0.05492 2.10797 -0.12074
			CHANNELS 3 Zrotation Yrotation Xrotation
			JOINT Spine1
			{
				OFFSET 0.04577 2.11592 -0.04483
				CHANNELS 3 Zrotation Yrotation Xrotation
				JOINT Neck
				{
					OFFSET 0 0 0
					CHANNELS 3 Zrotation Yrotation Xrotation
					JOINT Neck1
					{
						OFFSET -0.10759 1.80167 0.15770
						CHANNELS 3 Zrotation Yrotation Xrotation
						JOINT Head
						{
							OFFSET 0.09237 1.77509 -0.40848
							CHANNELS 3 Zrotation Yrotation Xrotation
							End Site
							{
								OFFSET 0.03805 1.84093 -0.15754
							}
						}
					}
				}
				JOINT LeftShoulder
				{
					OFFSET 0 0 0
					CHANNELS 3 Zrotation Yrotation Xrotation
					JOINT LeftArm
					{
						OFFSET 3.42372 1.09575 -0.28209
						CHANNELS 3 Zrotation Yrotation Xrotation
						JOINT LeftForeArm
						{
							OFFSET 4.95681 -0.00000 0.00000
							CHANNELS 3 Zrotation Yrotation Xrotation
							JOINT LeftHand
							{
								OFFSET 3.40915 -0.00000 0.00000
								CHANNELS 3 Zrotation Yrotation Xrotation
								JOINT LeftFingerBase
								{
									OFFSET 0 0 0
									CHANNELS 3 Zrotation Yrotation Xrotation
									JOINT LeftHandIndex1
									{
										OFFSET 0.61640 -0.00000 0.00000
										CHANNELS 3 Zrotation Yrotation Xrotation
										End Site
										{
											OFFSET 0.49696 -0.00000 0.00000
										}
									}
								}
								JOINT LThumb
								{
									OFFSET 0 0 0
									CHANNELS 3 Zrotation Yrotation Xrotation
									End Site
									{
										OFFSET 0.50455 -0.00000 0.50455
									}
								}
							}
						}
					}
				}
				JOINT RightShoulder
				{
					OFFSET 0 0 0
					CHANNELS 3 Zrotation Yrotation Xrotation
					JOINT RightArm
					{
						OFFSET -3.24731 1.15872 -0.32221
						CHANNELS 3 Zrotation Yrotation Xrotation
						JOINT RightForeArm
						{
							OFFSET -5.35200 -0.00000 0.00000
							CHANNELS 3 Zrotation Yrotation Xrotation
							JOINT RightHand
							{
								OFFSET -3.43721 -0.00000 -0.00000
								CHANNELS 3 Zrotation Yrotation Xrotation
								JOINT RightFingerBase
								{
									OFFSET 0 0 0
									CHANNELS 3 Zrotation Yrotation Xrotation
									JOINT RightHandIndex1
									{
										OFFSET -0.72009 -0.00000 0.00000
										CHANNELS 3 Zrotation Yrotation Xrotation
										End Site
										{
											OFFSET -0.58056 -0.00000 0.00000
										}
									}
								}
								JOINT RThumb
								{
									OFFSET 0 0 0
									CHANNELS 3 Zrotation Yrotation Xrotation
									End Site
									{
										OFFSET -0.58942 -0.00000 0.58942
									}
								}
							}
						}
					}
				}
			}
		}
	}
}
MOTION
Frames: 16
Frame Time: .0083333
0.6437 19.3545 11.2521 -57.1413 80.4712 297.3310 0.0000 0.0000 0.0000 -7.3839 -7.3268 -26.3919 1.6721 8.1469 23.1611 1.6272 13.6393 23.3840 0.0728 1.7412 4.7910 0.0000 0.0000 0.0000 30.2160 -7.2501 6.6638 -4.3685 -12.6353 38.0181 -3.4714 8.5853 -33.8139 -0.1030 2.0690 -5.6965 6.2964 1.2182 8.8957 4.3164 2.4191 3.8419 0.7091 1.3276 -0.9252 -7.1388 -1.1909 -13.2753 0.9190 1.6974 37.4085 2.0857 0.3695 15.3103 0.0000 0.0000 0.0000 -87.7167 7.3872 19.7339 17.1306 -27.0296 -4.1465 -0.0000 0.0000 -2.4225 15.7690 17.2035 4.7743 -7.1250 0.0000 -0.0000 -11.6392 47.4703 -0.7187 0.0000 0.0000 0.0000 81.8844 0.5990 25.1937 -28.6894 39.7432 -10.5616 0.0000 -0.0000 -15.9352 -19.4141 11.6252 -4.0622 7.1250 -0.0000 -0.0000 5.4155 -17.7077 3.5276
0.7893 19.2703 11.2526 -56.4067 80.2844 298.0320 0.0000 0.0000 0.0000 -7.3747 -7.3368 -25.5828 1.5228 7.7921 22.0844 1.6467 13.9144 23.5631 0.0222 0.9616 2.6430 0.0000 0.0000 0.0000 30.2608 -7.0120 6.9332 -4.6183 -12.9406 39.1465 -3.6621 11.0629 -34.6717 -0.0357 -1.2204 3.3553 6.1914 1.2566 8.6507 4.3654 2.4372 3.8562 0.8242 1.3384 -0.7814 -7.2874 -1.1467 -13.3469 1.0773 1.7605 37.4810 2.1923 0.3946 15.3561 -0.0000 0.0000 0.0000 -87.8356 7.5448 19.4177 17.0380 -26.9079 -4.1045 -0.0000 0.0000 -2.0925 15.5694 16.8764 4.6245 -7.1250 0.0000 -0.0000 -11.7240 47.1142 -0.6199 -0.0000 0.0000 0.0000 81.9730 0.4514 25.1120 -28.5607 39.6274 -10.4794 0.0000 -0.0000 -15.5854 -19.1868 11.7718 -4.0608 7.1250 -0.0000 -0.0000 5.5772 -17.5725 3.6505
0.9368 19.1550 11.2555 -56.5824 79.9093 297.7400 0.0000 0.0000 0.0000 -7.1036 -7.1980 -25.1501 1.4928 7.7183 21.8617 1.6286 13.7427 23.4124 0.0000 0.0408 0.1122 0.0000 0.0000 0.0000 30.6505 -7.1008 7.4367 -4.7380 -13.0825 39.6782 -3.6912 5.3788 -35.2954 -0.9480 6.2008 -17.3683 6.3858 1.3182 8.4541 4.4084 2.5146 3.9192 0.7625 1.3851 -0.5979 -7.1694 -1.1728 -13.5714 1.0256 1.7563 37.7537 2.1601 0.3973 15.5471 -0.0000 -0.0000 0.0000 -87.6725 7.6093 19.6114 16.9358 -26.7731 -4.0584 -0.0000 0.0000 -2.2050 15.3612 16.8622 4.5561 -7.1250 0.0000 -0.0000 -11.9127 47.0720 -0.6176 -0.0000 -0.0000 0.0000 82.3054 0.3746 24.7633 -28.3550 39.4410 -10.3485 0.0000 -0.0000 -15.3515 -19.5841 11.9261 -4.2048 7.1250 -0.0000 -0.0000 5.3029 -17.3776 3.4921
1.0852 19.1347 11.2632 -56.9332 79.6315 297.2940 0.0000 0.0000 0.0000 -7.0120 -6.8103 -24.3483 1.4135 7.5195 21.2639 1.6280 13.6928 23.3991 0.0009 -0.1973 -0.5422 0.0000 0.0000 0.0000 31.0798 -4.4773 8.6915 -5.0493 -13.4391 41.0354 -2.9531 17.7145 -31.6322 -1.3644 -7.3930 20.8851 6.5230 1.2558 8.2931 4.4587 2.4274 3.9502 0.7519 1.3472 -0.4756 -7.1763 -1.1175 -13.6065 0.9665 1.8790 37.8426 2.1594 0.4381 15.5954 -0.0000 0.0000 0.0000 -87.7422 7.7842 19.3668 16.8699 -26.6859 -4.0287 -0.0000 0.0000 -2.1647 15.2464 16.8443 4.5159 -7.1250 0.0000 -0.0000 -12.0134 47.0388 -0.6129 -0.0000 0.0000 0.0000 82.5001 0.2720 24.7443 -28.1969 39.2969 -10.2482 0.0000 -0.0000 -15.3123 -19.8162 12.0829 -4.3136 7.1250 -0.0000 -0.0000 5.1445 -17.1930 3.4078
1.2450 18.9656 11.2448 -56.3077 79.6547 297.8840 0.0000 0.0000 0.0000 -7.3638 -6.5902 -23.8652 1.3642 7.3924 20.8833 1.6700 13.9058 23.7120 0.0014 -0.2444 -0.6714 0.0000 0.0000 0.0000 30.7353 -7.6496 7.7237 -5.2610 -13.6718 41.9383 -3.4736 -2.5556 -36.2361 -3.8963 12.0211 -35.8066 6.3617 1.1085 7.9122 4.4994 2.1781 4.0141 0.9158 1.2271 -0.2150 -7.5925 -0.9339 -13.6286 1.1856 2.1871 37.7704 2.3744 0.5365 15.5414 0.0000 0.0000 0.0000 -88.2472 7.9298 18.3081 16.7503 -26.5274 -3.9752 -0.0000 0.0000 -1.5341 14.9857 16.7055 4.4000 -7.1250 0.0000 -0.0000 -12.2116 46.8651 -0.5703 0.0000 0.0000 0.0000 82.3731 0.1480 25.0271 -28.1027 39.2106 -10.1885 0.0000 -0.0000 -15.2538 -19.4866 11.9695 -4.1972 7.1250 -0.0000 -0.0000 5.3718 -17.3403 3.5423
1.4150 18.9454 11.2450 -54.9320 79.9040 299.2890 0.0000 0.0000 0.0000 -8.0951 -5.9154 -23.0670 1.2908 7.1989 20.3059 1.7129 13.8223 23.9723 0.0060 -0.4993 -1.3721 0.0000 0.0000 0.0000 30.2893 -6.0883 8.1687 -5.6650 -14.0956 43.6218 -3.9311 9.0080 -36.0796 -0.3530 3.8171 -10.5626 6.0110 1.1404 7.4303 4.3146 2.1365 3.9923 0.9346 1.2019 0.0208 -7.6010 -0.8608 -13.5743 1.4016 2.2210 37.8400 2.4757 0.5798 15.5536 -0.0000 0.0000 0.0000 -88.3397 8.2621 17.8296 16.7160 -26.4818 -3.9599 -0.0000 0.0000 -0.9762 14.7317 16.7167 4.3251 -7.1250 0.0000 -0.0000 -12.4496 46.8427 -0.5748 -0.0000 0.0000 0.0000 82.8285 -0.3422 24.5109 -28.2362 39.3328 -10.2730 0.0000 -0.0000 -14.8639 -19.2794 11.4160 -3.9605 7.1250 -0.0000 -0.0000 5.5062 -17.9381 3.5592
1.5665 18.8704 11.2495 -55.1139 80.0761 299.2510 0.0000 0.0000 0.0000 -8.4990 -5.5047 -22.8404 1.2875 7.1900 20.2796 1.7293 13.6281 24.0432 0.0265 -1.0516 -2.8908 0.0000 0.0000 0.0000 30.1895 -5.9103 8.0833 -5.9808 -14.4097 44.9046 -3.9212 9.2642 -36.0143 -0.3597 3.8529 -10.6632 5.8003 1.2389 7.1117 4.1393 2.2198 3.8161 0.8696 1.2332 0.0149 -7.2103 -0.9421 -13.3889 1.3516 2.0092 37.9844 2.3542 0.5448 15.5947 -0.0000 -0.0000 0.0000 -88.0197 8.6636 18.3759 16.7033 -26.4650 -3.9542 -0.0000 0.0000 -1.1895 14.6783 17.2455 4.4405 -7.1250 0.0000 -0.0000 -12.6661 47.3635 -0.7502 -0.0000 -0.0000 0.0000 83.4948 -0.9882 23.6243 -28.3431 39.4302 -10.3409 0.0000 -0.0000 -14.7130 -19.2751 11.0183 -3.8238 7.1250 -0.0000 -0.0000 5.5031 -18.3556 3.5063
1.7193 18.7650 11.2404 -56.5315 80.2602 298.0400 0.0000 0.0000 0.0000 -8.8888 -5.1541 -22.4199 1.2141 6.9896 19.6845 1.8351 13.4869 24.6919 0.0613 -1.5981 -4.3963 0.0000 0.0000 0.0000 30.0672 -6.1975 7.5436 -6.3848 -14.7911 46.5071 -3.9737 8.0215 -36.3666 -0.6762 5.2580 -14.6458 5.6113 1.1933 6.6650 4.1614 2.1096 3.7071 1.0147 1.1736 0.1385 -7.0772 -0.9924 -13.3911 1.2366 1.9595 38.1336 2.2790 0.5277 15.6769 -0.0000 -0.0000 0.0000 -88.1051 8.7939 18.5729 16.5254 -26.2278 -3.8752 -0.0000 0.0000 -1.5140 14.9721 17.4576 4.5869 -7.1250 0.0000 -0.0000 -12.4615 47.6155 -0.8162 -0.0000 -0.0000 0.0000 83.4206 -1.2984 23.6260 -28.0925 39.2012 -10.1821 0.0000 -0.0000 -15.3392 -19.4833 11.1421 -3.9111 7.1250 -0.0000 -0.0000 5.3585 -18.2094 3.4307
1.8776 18.6782 11.2303 -57.4112 80.7727 297.2590 0.0000 0.0000 0.0000 -9.5680 -5.2420 -21.8929 1.2166 6.9965 19.7050 1.8733 13.3044 24.9036 0.0547 -1.5090 -4.1505 0.0000 0.0000 0.0000 29.4698 -6.4103 7.3840 -6.7498 -15.1176 47.9217 -3.9806 9.8197 -36.2694 -0.3502 3.8022 -10.5208 5.0896 1.0979 6.2851 4.1048 1.9162 3.6633 1.2665 1.0685 0.2827 -7.0928 -1.0096 -13.5355 1.1710 1.9947 38.2919 2.2669 0.5279 15.7930 -0.0000 -0.0000 0.0000 -88.3208 8.8042 18.1994 16.2119 -25.8071 -3.7377 -0.0000 0.0000 -1.1865 15.4652 17.0461 4.6368 -7.1250 0.0000 -0.0000 -11.8729 47.2706 -0.6743 -0.0000 -0.0000 0.0000 83.2865 -1.6053 23.7412 -28.0193 39.1340 -10.1358 0.0000 -0.0000 -15.9194 -19.6024 11.2756 -3.9833 7.1250 -0.0000 -0.0000 5.2771 -18.0598 3.3956
2.0375 18.5870 11.2259 -58.2536 81.1804 296.4210 0.0000 0.0000 0.0000 -10.0721 -5.4710 -21.2343 1.2532 7.0972 20.0038 1.8173 13.1716 24.5308 0.0299 -1.1159 -3.0676 0.0000 0.0000 0.0000 28.9372 -6.5926 7.4441 -7.0924 -15.4092 49.2228 -3.9036 11.5820 -35.8442 -0.1967 2.8561 -7.8785 4.6617 1.0657 6.0589 4.0130 1.8279 3.6139 1.4191 1.0159 0.3444 -7.0025 -1.0544 -13.6113 1.1383 1.9282 38.3826 2.2300 0.5072 15.8624 0.0000 0.0000 0.0000 -88.2199 8.8511 18.1497 15.9442 -25.4449 -3.6219 -0.0000 0.0000 -0.8952 15.6016 16.8774 4.6347 -7.1250 0.0000 -0.0000 -11.6945 47.1195 -0.6198 0.0000 0.0000 0.0000 83.4995 -1.8965 23.2220 -27.8961 39.0204 -10.0582 0.0000 -0.0000 -15.9069 -19.4418 11.1166 -3.8933 7.1250 -0.0000 -0.0000 5.3872 -18.2395 3.4457
2.2041 18.4827 11.2223 -59.3328 81.0773 295.2620 0.0000 0.0000 0.0000 -10.0587 -5.3515 -20.4630 1.2813 7.1734 20.2301 1.7569 12.8538 24.0966 0.0107 -0.6670 -1.8330 0.0000 0.0000 0.0000 28.9371 -6.7860 7.5894 -7.4498 -15.6992 50.5556 -3.9272 11.3407 -35.9604 -0.4397 4.2549 -11.7950 4.5431 1.0333 5.8337 4.1443 1.7643 3.6367 1.6303 0.9845 0.4847 -7.0101 -1.0576 -13.6395 1.1141 1.9248 38.3198 2.2182 0.5005 15.8379 -0.0000 -0.0000 0.0000 -88.3135 8.7574 17.9488 15.6128 -24.9928 -3.4807 -0.0000 0.0000 -0.7891 15.5322 16.9340 4.6282 -7.1250 0.0000 -0.0000 -11.7761 47.1673 -0.6383 -0.0000 -0.0000 0.0000 83.6167 -1.9997 22.6253 -27.4549 38.6095 -9.7816 0.0000 -0.0000 -15.4610 -19.1847 10.8378 -3.7431 7.1250 -0.0000 -0.0000 5.5644 -18.5518 3.5215
2.3731 18.3815 11.2151 -59.6574 81.2301 294.7090 0.0000 0.0000 0.0000 -10.4873 -4.7845 -19.6341 1.3083 7.2457 20.4453 1.7112 11.5250 23.6237 0.0645 1.6382 4.5068 0.0000 0.0000 0.0000 28.5756 -7.1045 7.8674 -7.8023 -15.9719 51.8475 -4.0023 10.8092 -36.3332 -0.7823 5.6467 -15.7628 4.2337 0.9672 5.7608 4.1886 1.6542 3.6970 1.8569 0.9262 0.5764 -7.1883 -1.0400 -13.6500 1.0558 2.0007 38.1255 2.2303 0.4980 15.7396 -0.0000 -0.0000 0.0000 -88.5644 8.5210 17.3736 15.1550 -24.3615 -3.2896 -0.0000 0.0000 -0.3224 15.5455 17.0296 4.6576 -7.1250 0.0000 -0.0000 -11.7932 47.2649 -0.6680 -0.0000 -0.0000 0.0000 83.7151 -2.1911 22.1291 -27.0466 38.2236 -9.5280 0.0000 -0.0000 -15.1371 -19.0968 10.7693 -3.7014 7.1250 -0.0000 -0.0000 5.6256 -18.6302 3.5508
2.5491 18.2835 11.2025 -60.2326 82.0306 293.8070 0.0000 0.0000 0.0000 -11.7639 -3.8435 -19.0551 1.3981 7.4801 21.1458 1.5784 7.9192 22.4906 0.4748 4.4191 12.2587 0.0000 0.0000 0.0000 27.4073 -7.7589 8.2300 -8.1455 -16.2252 53.0851 -4.0096 11.3200 -36.3553 -0.9064 6.0671 -16.9793 3.5349 0.9025 5.7597 4.0026 1.5257 3.7030 2.0610 0.8484 0.5686 -7.2291 -1.0856 -13.4937 0.9667 1.9611 38.0320 2.1881 0.4685 15.6600 0.0000 0.0000 0.0000 -88.6805 8.6268 16.9979 14.8391 -23.9214 -3.1604 -0.0000 -0.0000 0.2675 15.6279 17.0216 4.6813 -7.1250 0.0000 -0.0000 -11.7143 47.2681 -0.6643 0.0000 0.0000 0.0000 83.9054 -2.6666 21.5721 -26.7742 37.9630 -9.3599 0.0000 -0.0000 -15.2200 -19.2769 10.6962 -3.7140 7.1250 -0.0000 -0.0000 5.4976 -18.6935 3.4615
2.7386 18.1906 11.1884 -60.6322 83.5166 293.0480 0.0000 0.0000 0.0000 -13.8328 -2.9745 -18.4547 1.5268 7.8016 22.1132 1.2247 3.1444 20.1156 0.0496 1.4372 3.9525 0.0000 0.0000 0.0000 25.3443 -8.7666 8.6464 -8.4882 -16.4669 54.3029 -3.9629 12.3397 -36.1261 -0.9296 6.1421 -17.1971 2.1003 0.7863 5.6673 3.6694 1.2826 3.7164 2.5340 0.6993 0.6106 -7.1221 -1.1498 -13.4319 0.8698 1.8927 38.1980 2.1217 0.4446 15.7361 -0.0000 -0.0000 0.0000 -88.8849 8.8792 16.4764 14.5702 -23.5440 -3.0522 -0.0000 -0.0000 0.9736 15.2648 16.9561 4.5506 -7.1250 0.0000 -0.0000 -12.0309 47.1533 -0.6483 -0.0000 -0.0000 0.0000 84.0743 -3.1875 21.0032 -26.5686 37.7647 -9.2337 0.0000 -0.0000 -15.2213 -19.2684 10.5048 -3.6468 7.1250 -0.0000 -0.0000 5.5014 -18.8950 3.4392
2.9069 18.0956 11.1651 -62.9120 82.4884 291.0070 0.0000 0.0000 0.0000 -12.9824 -2.0615 -18.6704 1.6990 8.2088 23.3500 0.7856 -0.1425 16.8048 0.0050 0.4565 1.2543 0.0000 0.0000 0.0000 26.2376 -8.6665 8.5660 -8.8286 -16.6962 55.4955 -3.8361 12.8211 -35.5256 -0.9439 6.1876 -17.3298 3.3394 0.9016 5.2476 3.8353 1.4779 3.5955 2.0083 0.8186 0.7419 -7.0823 -1.2724 -13.5300 1.0282 1.6582 38.3469 2.1503 0.3723 15.8442 0.0000 0.0000 0.0000 -88.8621 8.8363 16.3083 14.2155 -23.0419 -2.9119 -0.0000 -0.0000 1.5743 14.8266 17.3897 4.5234 -7.1250 0.0000 -0.0000 -12.5749 47.5277 -0.7962 0.0000 0.0000 0.0000 84.4209 -3.6194 20.0670 -26.3595 37.5615 -9.1059 0.0000 -0.0000 -14.8887 -19.2355 10.6576 -3.6923 7.1250 -0.0000 -0.0000 5.5263 -18.7370 3.4744
3.0845 17.9977 11.1470 -64.7275 82.0066 289.1310 0.0000 0.0000 0.0000 -12.6698 -1.4014 -18.5604 1.8983 8.6510 24.7095 0.4540 -2.5025 13.8884 0.0004 -0.1280 -0.3517 0.0000 0.0000 0.0000 26.4766 -8.8549 8.7861 -9.1722 -16.9172 56.6837 -3.7222 13.3571 -34.9906 -0.9605 6.2404 -17.4834 4.0418 1.0346 5.0253 3.8728 1.6736 3.5435 1.6508 0.9297 0.8303 -7.0908 -1.4164 -13.4262 1.2625 1.3468 38.3452 2.2008 0.2771 15.8296 -0.0000 -0.0000 0.0000 -88.5876 8.8158 16.9600 13.8873 -22.5733 -2.7847 -0.0000 -0.0000 1.4786 14.9558 18.0480 4.7309 -7.1250 0.0000 -0.0000 -12.6711 48.2025 -1.0163 -0.0000 -0.0000 0.0000 84.7604 -4.2068 19.0201 -26.1556 37.3619 -8.9819 0.0000 -0.0000 -14.4254 -19.0230 10.9197 -3.7368 7.1250 -0.0000 -0.0000 5.6794 -18.4781 3.6043
